<?xml version="1.0" standalone="no"?>
<!DOCTYPE svg PUBLIC "-//W3C//DTD SVG 20010904//EN"
 "http://www.w3.org/TR/2001/REC-SVG-20010904/DTD/svg10.dtd">
<svg version="1.0" xmlns="http://www.w3.org/2000/svg"
 width="1200.000000pt" height="1200.000000pt" viewBox="0 0 1200.000000 1200.000000"
 preserveAspectRatio="xMidYMid meet">

<g transform="translate(0.000000,1200.000000) scale(0.100000,-0.100000)"
fill="#000000" stroke="none">
<path d="M7850 7113 c-52 -8 -96 -15 -96 -16 -1 -1 40 -292 92 -647 51 -354
91 -646 89 -648 -4 -4 -254 -42 -280 -42 -16 0 -12 7 21 35 23 19 49 46 59 61
17 26 17 26 -26 70 -26 26 -52 44 -66 44 -12 0 -56 -22 -98 -49 -94 -62 -160
-79 -240 -63 -69 14 -109 41 -147 101 -28 45 -55 117 -47 125 2 2 132 23 288
45 157 23 291 47 298 53 29 24 8 149 -41 246 -98 193 -345 255 -566 142 -226
-115 -288 -435 -135 -696 38 -65 101 -124 166 -156 65 -32 82 -27 -216 -68
-121 -17 -236 -34 -255 -37 l-35 -6 32 36 c67 76 107 175 116 281 7 83 -11
220 -38 297 -63 181 -171 270 -328 271 -100 0 -171 -29 -247 -99 -70 -65 -58
-91 -100 212 -17 121 -32 225 -34 231 -3 7 -37 6 -113 -4 -59 -8 -109 -16
-111 -17 -1 -1 38 -281 87 -621 49 -340 91 -632 93 -649 l3 -30 -103 -14 c-56
-8 -104 -12 -106 -10 -2 2 -46 292 -96 644 -51 352 -94 642 -96 644 -4 4 -177
-17 -205 -25 -14 -4 -12 -30 18 -235 19 -127 33 -233 30 -235 -3 -3 -24 5 -48
18 -37 19 -59 23 -134 23 -79 0 -98 -4 -155 -31 -193 -91 -272 -317 -205 -590
50 -203 162 -321 317 -332 65 -4 66 -5 72 -36 3 -17 22 -143 42 -281 20 -137
37 -251 38 -252 4 -4 4895 703 4900 708 4 5 -80 598 -86 604 -2 2 -315 -41
-695 -96 l-691 -100 -58 63 c-33 34 -88 94 -124 133 -35 38 -102 109 -149 157
l-85 87 21 23 c20 22 250 387 259 413 4 9 -26 7 -112 -5 -141 -20 -127 -8
-254 -224 -96 -163 -109 -180 -152 -190 -23 -5 -28 -3 -33 16 -6 27 -105 714
-105 728 0 12 -10 12 -130 -7z m-444 -678 c30 -18 49 -40 68 -77 14 -28 26
-57 26 -63 0 -12 -396 -72 -407 -62 -3 4 -1 31 6 61 30 137 190 210 307 141z
m-1023 -139 c51 -19 72 -39 103 -102 55 -112 60 -309 12 -397 -53 -98 -221
-127 -302 -54 -23 20 -28 41 -54 222 l-29 200 31 43 c60 85 152 119 239 88z
m1975 -239 c85 -92 153 -169 151 -171 -9 -9 -334 -54 -340 -48 -4 4 -18 90
-33 191 -29 203 -29 203 33 199 31 -3 52 -22 189 -171z m-2975 89 c58 -24 64
-39 91 -230 14 -98 26 -189 26 -203 0 -68 -118 -153 -211 -153 -91 0 -147 55
-183 179 -55 188 -14 358 99 407 39 17 137 18 178 0z m4657 -259 c0 -8 -11
-19 -24 -25 -48 -22 -58 -50 -45 -136 12 -79 10 -92 -14 -83 -9 3 -18 39 -26
103 -7 55 -15 109 -18 122 -4 17 -1 22 16 22 12 0 21 -6 21 -16 0 -13 5 -12
26 5 30 24 64 28 64 8z m-229 -44 c24 -14 67 -89 57 -99 -2 -1 -44 -8 -93 -15
-50 -6 -94 -16 -100 -21 -6 -5 1 -18 18 -35 34 -34 82 -36 122 -5 32 25 58 15
35 -13 -36 -43 -97 -55 -155 -31 -42 18 -65 61 -65 122 0 39 5 51 34 80 28 28
42 34 76 34 23 0 55 -8 71 -17z m-876 -25 c4 -21 45 -303 45 -314 0 -2 -9 -4
-20 -4 -12 0 -20 7 -20 18 0 9 -11 86 -24 170 -22 145 -22 152 -5 152 11 0 21
-9 24 -22z m596 -15 c39 -23 63 -76 56 -126 -10 -75 -91 -125 -161 -99 -16 7
-31 10 -33 8 -2 -2 0 -29 5 -60 8 -50 7 -56 -9 -56 -20 0 -21 5 -44 165 -9 61
-18 122 -21 138 -5 22 -2 27 15 27 13 0 21 -6 21 -16 0 -12 7 -10 31 10 37 31
96 35 140 9z m-318 -45 c54 -21 76 -118 40 -179 -40 -68 -158 -72 -204 -8 -24
34 -29 102 -10 135 22 40 29 46 67 59 39 14 55 13 107 -7z m-418 -54 c34 -16
71 -74 62 -98 -3 -8 -31 -16 -69 -20 -35 -4 -79 -11 -98 -15 l-35 -7 32 -32
c38 -38 78 -42 117 -11 33 26 63 19 44 -10 -25 -41 -112 -55 -167 -26 -39 19
-65 77 -58 127 6 45 29 75 72 94 40 18 60 17 100 -2z m-205 -20 c0 -6 -47
-177 -61 -221 -18 -56 -41 -43 -104 60 -32 50 -65 102 -73 115 -13 21 -13 22
9 22 19 -1 35 -18 78 -91 36 -59 57 -86 61 -77 4 7 17 51 30 98 12 47 24 88
27 93 5 8 33 10 33 1z m-610 -36 c48 -33 69 -66 76 -120 9 -63 -21 -126 -75
-156 -35 -20 -195 -52 -205 -41 -8 8 -48 310 -42 316 10 10 83 20 152 22 48 1
68 -4 94 -21z m-470 -12 c0 -8 39 -278 45 -313 5 -28 3 -33 -15 -33 -14 0 -20
7 -20 21 0 21 -1 21 -26 -4 -34 -34 -81 -43 -127 -24 -87 37 -103 163 -26 218
32 23 94 28 127 10 25 -13 26 -8 13 71 -4 27 -6 50 -3 53 7 6 32 7 32 1z m781
-13 c24 -14 67 -89 57 -99 -2 -1 -44 -8 -93 -15 -50 -6 -94 -16 -100 -21 -6
-5 1 -18 18 -35 34 -34 82 -36 122 -5 32 25 58 15 35 -13 -36 -43 -97 -55
-155 -31 -42 18 -65 61 -65 122 0 39 5 51 34 80 28 28 42 34 76 34 23 0 55 -8
71 -17z m-2071 -35 c39 -28 38 -38 -5 -38 -32 0 -35 2 -35 30 0 36 2 36 40 8z
m-664 -84 c17 -41 9 -54 -32 -54 -12 0 -35 -3 -52 -6 l-30 -6 47 51 c25 28 47
51 49 51 2 0 10 -16 18 -36z m1637 -44 c20 -16 27 -35 37 -93 6 -39 13 -82 16
-94 3 -18 0 -23 -15 -23 -19 0 -22 8 -37 112 -8 64 -36 92 -83 84 -59 -9 -75
-38 -67 -124 4 -40 9 -79 13 -87 3 -10 -2 -15 -16 -15 -12 0 -21 2 -21 5 0 2
-7 52 -16 110 -8 59 -13 113 -10 121 7 19 26 18 26 -1 0 -20 7 -19 37 5 34 27
102 27 136 0z m-581 -50 c27 0 38 -4 38 -15 0 -10 -10 -15 -30 -15 -40 0 -45
-16 -32 -97 13 -80 30 -102 66 -85 19 8 27 8 32 0 10 -16 -24 -38 -58 -38 -46
0 -64 28 -78 124 -11 77 -14 85 -32 83 -28 -3 -34 20 -9 28 14 4 21 15 21 30
0 32 23 38 34 9 8 -19 17 -24 48 -24z m269 13 c16 -9 35 -31 44 -49 26 -56 33
-52 -114 -74 -35 -5 -66 -12 -69 -15 -3 -3 6 -18 21 -33 33 -33 94 -37 126 -8
25 23 61 15 40 -10 -36 -43 -116 -57 -170 -28 -53 27 -75 114 -44 174 29 56
109 77 166 43z m-458 -73 c20 -16 27 -35 37 -93 6 -39 13 -82 16 -94 3 -18 0
-23 -15 -23 -19 0 -22 8 -37 112 -8 64 -36 92 -83 84 -59 -9 -75 -38 -67 -124
4 -40 9 -79 13 -87 3 -10 -2 -15 -16 -15 -12 0 -21 2 -21 5 0 2 -7 52 -16 110
-8 59 -13 113 -10 121 7 19 26 18 26 -1 0 -20 7 -19 37 5 34 27 102 27 136 0z
m-743 -9 c0 -17 -12 -21 -90 -32 l-91 -12 6 -46 c12 -83 6 -79 93 -65 81 13
92 11 92 -10 0 -9 -21 -16 -62 -20 -93 -11 -109 -16 -104 -35 2 -9 8 -40 11
-68 6 -48 5 -53 -12 -53 -18 0 -22 17 -43 160 -12 88 -21 162 -19 164 2 2 51
10 109 18 58 9 106 16 108 17 1 0 2 -8 2 -18z m426 -27 c48 -23 67 -64 61
-128 -4 -42 -10 -55 -38 -78 -61 -51 -160 -33 -193 36 -21 45 -20 84 4 124 35
57 104 76 166 46z m-226 -28 c0 -8 -14 -19 -30 -25 -50 -17 -56 -55 -33 -188
4 -28 2 -33 -14 -33 -17 0 -22 11 -32 88 -7 48 -15 104 -18 125 -4 29 -2 37
10 37 9 0 20 -7 25 -15 7 -14 11 -13 27 5 21 23 65 27 65 6z"/>
<path d="M9689 5801 c-36 -36 -39 -66 -6 -58 12 3 48 9 80 12 68 9 76 34 20
64 -35 18 -63 13 -94 -18z"/>
<path d="M9418 5775 c-52 -29 -56 -105 -7 -148 25 -23 38 -28 63 -23 74 14
101 103 47 157 -32 32 -62 36 -103 14z"/>
<path d="M9088 5710 c-26 -27 -30 -36 -25 -67 14 -83 91 -110 149 -53 26 27
30 36 25 67 -14 83 -91 110 -149 53z"/>
<path d="M8710 5677 c-27 -13 -59 -62 -48 -73 7 -7 146 11 155 19 10 10 -23
47 -51 57 -16 5 -29 10 -30 10 -1 0 -12 -6 -26 -13z"/>
<path d="M7815 5633 c-16 -3 -33 -8 -37 -12 -4 -4 0 -62 9 -130 l17 -123 58 6
c99 10 147 47 155 118 5 56 -21 107 -67 130 -34 17 -70 20 -135 11z"/>
<path d="M7355 5465 c-38 -37 -31 -108 14 -142 44 -33 128 3 132 57 3 48 -1
61 -26 85 -16 17 -35 25 -60 25 -25 0 -44 -8 -60 -25z"/>
<path d="M8169 5581 c-36 -36 -39 -66 -6 -58 12 3 48 9 80 12 68 9 76 34 20
64 -35 18 -63 13 -94 -18z"/>
<path d="M6782 5400 c-20 -8 -56 -69 -47 -78 6 -6 165 20 165 27 -1 12 -25 38
-47 49 -25 14 -39 14 -71 2z"/>
<path d="M6013 5285 c-61 -26 -72 -97 -24 -146 31 -31 53 -35 95 -19 52 19 66
105 25 145 -33 31 -58 37 -96 20z"/>
<path d="M2345 6284 c-49 -8 -92 -18 -96 -22 -3 -4 -34 -128 -68 -277 -35
-148 -105 -448 -157 -665 -52 -217 -94 -400 -94 -406 0 -13 183 10 217 28 29
14 47 65 74 206 18 95 26 115 43 122 12 5 122 23 246 40 124 17 235 32 246 35
18 4 31 -14 94 -131 50 -93 80 -139 97 -147 18 -8 50 -8 126 2 56 7 104 15
107 17 2 3 -5 22 -16 42 -12 20 -166 292 -344 605 -321 564 -323 567 -354 566
-17 -1 -71 -8 -121 -15z m201 -505 c74 -139 134 -256 134 -260 0 -5 -3 -9 -7
-9 -5 0 -90 -12 -191 -26 -101 -15 -185 -24 -189 -21 -3 3 0 28 6 54 29 132
91 434 97 476 3 26 9 46 11 43 3 -3 65 -118 139 -257z"/>
<path d="M4230 6185 c-30 -8 -73 -21 -95 -30 -55 -23 -159 -99 -184 -133 l-20
-28 27 -35 c58 -75 92 -78 176 -15 99 74 198 92 263 50 30 -19 59 -78 68 -136
l7 -47 -38 -9 c-22 -6 -64 -16 -94 -23 -76 -18 -198 -70 -253 -108 -118 -81
-151 -205 -88 -328 48 -94 149 -135 280 -114 87 14 162 51 225 111 49 46 55
49 61 31 3 -10 15 -31 26 -45 22 -28 46 -31 131 -20 l44 6 -46 324 c-43 293
-50 329 -79 388 -72 148 -224 207 -411 161z m264 -532 c3 -10 8 -44 12 -76 6
-52 4 -60 -20 -92 -45 -59 -108 -88 -188 -89 -64 -1 -71 1 -94 27 -51 59 -20
138 69 181 50 23 175 64 204 65 6 1 14 -7 17 -16z"/>
<path d="M3427 6070 c-57 -10 -145 -51 -187 -87 -17 -14 -43 -46 -58 -72 -24
-41 -27 -56 -27 -131 1 -93 13 -126 64 -177 44 -45 90 -63 238 -93 142 -29
181 -47 197 -93 7 -20 5 -36 -7 -62 -34 -71 -160 -97 -269 -55 -65 25 -100 25
-121 3 -22 -25 -50 -100 -44 -117 9 -22 115 -57 197 -65 142 -14 282 26 369
104 107 97 114 297 14 386 -50 43 -87 57 -232 85 -69 14 -139 33 -156 43 -62
36 -56 101 14 148 41 28 123 31 213 8 33 -9 67 -13 77 -10 26 8 68 102 55 123
-31 49 -218 84 -337 62z"/>
</g>
</svg>
